<svg xmlns="http://www.w3.org/2000/svg" width="512" height="512" viewBox="0 0 512 512" version="1.1"><path d="M 149.042 315.025 C 145.646 320.236, 140.310 329.675, 137.184 336 C 131.785 346.924, 131.500 347.879, 131.500 355.074 C 131.500 361.758, 131.856 363.223, 134.526 367.547 C 136.390 370.565, 139.408 373.594, 142.382 375.433 C 146.083 377.721, 148.716 378.514, 153.649 378.829 C 158.129 379.114, 161.434 378.724, 164.516 377.547 C 167.205 376.520, 170.648 373.960, 173.283 371.030 C 175.670 368.375, 178.157 364.418, 178.811 362.236 C 179.465 360.053, 179.992 356.520, 179.983 354.384 C 179.974 352.248, 178.502 346.900, 176.712 342.500 C 174.923 338.100, 170.257 329.100, 166.345 322.500 C 162.432 315.900, 158.328 309.386, 157.224 308.025 L 155.217 305.550 149.042 315.025 M 249.440 315.209 C 246.243 320.319, 241.268 329.113, 238.385 334.750 C 235.501 340.388, 232.666 347.363, 232.086 350.250 C 231.434 353.488, 231.364 356.927, 231.903 359.221 C 232.383 361.268, 233.991 365.016, 235.476 367.549 C 237.059 370.250, 240.054 373.346, 242.718 375.036 C 245.216 376.620, 249.226 378.211, 251.630 378.572 C 254.033 378.932, 258.013 378.925, 260.473 378.556 C 262.946 378.185, 267.043 376.459, 269.638 374.693 C 272.643 372.649, 275.411 369.567, 277.333 366.126 C 279.684 361.914, 280.330 359.535, 280.318 355.126 C 280.307 351.089, 279.404 347.354, 277.121 341.902 C 275.371 337.723, 270.222 328.079, 265.678 320.471 C 261.134 312.863, 256.930 306.477, 256.335 306.278 C 255.740 306.080, 252.637 310.099, 249.440 315.209 M 351.748 312.537 C 349.280 316.366, 344.970 323.550, 342.171 328.500 C 339.371 333.450, 335.937 340.548, 334.540 344.273 C 333.143 347.998, 332 352.671, 332 354.657 C 332 356.643, 332.535 360.053, 333.189 362.236 C 333.843 364.418, 336.330 368.375, 338.717 371.030 C 341.352 373.960, 344.795 376.520, 347.484 377.547 C 350.566 378.724, 353.871 379.114, 358.351 378.829 C 363.284 378.514, 365.917 377.721, 369.618 375.433 C 372.592 373.594, 375.610 370.565, 377.474 367.547 C 380.151 363.212, 380.498 361.775, 380.482 355.074 C 380.465 348.157, 380.068 346.676, 375.904 338 C 373.396 332.775, 368.807 324.406, 365.706 319.402 C 362.605 314.399, 359.205 309.240, 358.152 307.939 L 356.236 305.573 351.748 312.537 M 197.415 419.250 C 194.232 424.337, 189.269 433.111, 186.386 438.748 C 183.503 444.384, 180.608 451.394, 179.951 454.326 C 178.955 458.780, 179.019 460.549, 180.345 465.079 C 181.217 468.060, 183.296 472.147, 184.964 474.160 C 186.632 476.173, 190.336 478.985, 193.195 480.410 C 196.835 482.224, 199.992 483, 203.728 483 C 206.663 483, 210.713 482.311, 212.728 481.469 C 214.744 480.627, 217.886 478.799, 219.711 477.407 C 221.536 476.015, 224.082 472.766, 225.369 470.188 C 226.656 467.610, 227.991 464.022, 228.336 462.215 C 228.682 460.408, 228.480 456.676, 227.890 453.921 C 227.299 451.166, 224.407 444.215, 221.464 438.475 C 218.521 432.735, 213.500 423.982, 210.307 419.024 C 207.113 414.066, 204.208 410.007, 203.851 410.005 C 203.494 410.002, 200.598 414.163, 197.415 419.250 M 301.020 420.250 C 297.490 425.887, 292.458 434.756, 289.839 439.959 C 287.219 445.161, 284.617 451.558, 284.056 454.174 C 283.495 456.790, 283.318 460.408, 283.664 462.215 C 284.009 464.022, 285.344 467.610, 286.631 470.188 C 287.918 472.766, 290.464 476.015, 292.289 477.407 C 294.114 478.799, 297.256 480.627, 299.272 481.469 C 301.287 482.311, 305.337 483, 308.272 483 C 312.008 483, 315.165 482.224, 318.805 480.410 C 321.664 478.985, 325.368 476.173, 327.036 474.160 C 328.704 472.147, 330.783 468.060, 331.655 465.079 C 332.981 460.549, 333.045 458.780, 332.049 454.326 C 331.392 451.394, 328.497 444.384, 325.614 438.748 C 322.731 433.111, 317.768 424.337, 314.585 419.250 C 311.402 414.163, 308.492 410, 308.118 410 C 307.744 410, 304.550 414.613, 301.020 420.250" stroke="none" fill="#7cd4e4" fill-rule="evenodd"/><path d="M 216.597 30.543 C 212.250 31.363, 204.730 33.362, 199.886 34.985 C 195.041 36.608, 188.022 39.484, 184.289 41.377 C 180.555 43.269, 174.339 47.049, 170.475 49.777 C 166.611 52.504, 160.861 57.102, 157.698 59.993 C 154.534 62.885, 149.007 69.132, 145.416 73.875 C 141.825 78.619, 136.471 87.369, 133.519 93.320 C 130.566 99.272, 127.171 107.848, 125.974 112.380 L 123.798 120.619 114.149 122.153 C 108.842 122.997, 101.675 124.835, 98.221 126.239 C 94.768 127.642, 89.422 130.300, 86.340 132.145 C 83.259 133.990, 77.535 138.683, 73.619 142.574 C 69.704 146.465, 64.990 152.189, 63.145 155.295 C 61.300 158.401, 58.683 163.684, 57.330 167.035 C 55.976 170.386, 54.231 176.137, 53.452 179.814 C 52.672 183.491, 52.027 189.723, 52.017 193.662 C 52.008 197.601, 52.640 204.169, 53.422 208.257 C 54.204 212.346, 56.048 218.550, 57.518 222.044 C 58.989 225.538, 61.790 230.895, 63.743 233.948 C 65.696 237.002, 70.266 242.459, 73.897 246.076 C 77.529 249.692, 83.650 254.504, 87.500 256.768 C 91.350 259.032, 98.100 262.148, 102.500 263.692 L 110.500 266.500 244 266.809 C 340.592 267.032, 379.525 266.801, 384.823 265.974 C 388.851 265.345, 395.151 263.809, 398.823 262.560 C 402.495 261.310, 407.975 259.045, 411 257.525 C 414.025 256.005, 419.200 252.841, 422.500 250.495 C 425.800 248.148, 431.226 243.364, 434.557 239.864 C 437.889 236.364, 441.992 231.475, 443.674 229 C 445.357 226.525, 448.081 221.800, 449.727 218.500 C 451.373 215.200, 453.660 209.575, 454.809 206 C 455.958 202.425, 457.371 196.830, 457.949 193.566 C 458.527 190.303, 459 183.748, 459 179 C 459 174.252, 458.527 167.697, 457.949 164.434 C 457.371 161.170, 455.958 155.575, 454.809 152 C 453.660 148.425, 451.373 142.800, 449.727 139.500 C 448.081 136.200, 445.357 131.475, 443.674 129 C 441.992 126.525, 437.889 121.636, 434.557 118.136 C 431.226 114.636, 425.800 109.852, 422.500 107.505 C 419.200 105.159, 414.025 101.995, 411 100.475 C 407.975 98.955, 402.384 96.652, 398.575 95.356 C 394.766 94.060, 390.888 93, 389.958 93 C 389.028 93, 385.169 90.530, 381.383 87.512 C 377.597 84.494, 371.350 80.441, 367.500 78.505 C 363.650 76.569, 356.941 74.089, 352.590 72.993 C 347.366 71.677, 341.355 71, 334.890 71 L 325.100 71 321.300 66.404 C 319.210 63.876, 313.900 58.908, 309.500 55.362 C 305.100 51.817, 298.125 46.942, 294 44.530 C 289.875 42.117, 282.940 38.737, 278.589 37.018 C 274.238 35.299, 267.038 32.981, 262.589 31.866 C 256.858 30.430, 250.128 29.724, 239.500 29.445 C 228.920 29.168, 222.171 29.491, 216.597 30.543" stroke="none" fill="#d4d4d4" fill-rule="evenodd"/></svg>