<svg xmlns="http://www.w3.org/2000/svg" width="512" height="512" viewBox="0 0 512 512" version="1.1"><path d="M 256.459 9.859 C 254.236 10.880, 251.311 13.042, 249.959 14.663 C 248.343 16.600, 238.792 42.110, 222.106 89.056 C 208.140 128.350, 187.745 185.700, 176.785 216.500 C 154.787 278.317, 155.141 276.789, 162.022 280.248 C 165.121 281.806, 169.062 281.997, 198.177 281.998 L 230.855 282 232.927 284.635 C 234.067 286.084, 235 288.455, 235 289.903 C 235 292.222, 221.316 330.277, 174.555 458 C 167.608 476.975, 161.047 494.863, 159.976 497.750 C 158.905 500.637, 158.359 502.980, 158.764 502.955 C 159.169 502.930, 173.225 485.370, 190 463.932 C 206.775 442.494, 250.163 387.277, 286.417 341.227 C 322.671 295.177, 353.609 255.745, 355.167 253.600 C 358.775 248.633, 358.751 245.598, 355.077 241.923 L 352.154 239 318.011 239 C 295.466 239, 283.183 238.633, 281.850 237.920 C 280.739 237.325, 279.194 235.316, 278.416 233.454 C 277.148 230.419, 277.199 229.575, 278.910 225.284 C 281.095 219.808, 331.828 100.538, 349.924 58.338 C 359.654 35.648, 362 29.263, 362 25.474 C 362 19.648, 359.170 14.340, 354.271 10.983 L 350.649 8.500 305.575 8.251 C 263.475 8.019, 260.233 8.125, 256.459 9.859" stroke="none" fill="#f3c41c" fill-rule="evenodd"/><path d="M 338.192 85.661 C 337.198 87.540, 279.646 223.170, 277.949 227.635 C 276.785 230.697, 278.932 236.358, 281.850 237.920 C 283.183 238.633, 295.466 239, 318.011 239 L 352.154 239 355.077 241.923 C 358.751 245.598, 358.775 248.633, 355.167 253.600 C 353.609 255.745, 322.523 295.288, 286.089 341.474 C 249.654 387.660, 220.314 425.605, 220.889 425.796 C 222.784 426.428, 238.349 422.828, 246.573 419.856 C 251.013 418.252, 258.213 414.860, 262.573 412.318 C 272.365 406.611, 285.418 393.790, 289.484 385.885 L 292.373 380.270 300.560 386.517 C 316.382 398.590, 331.505 405.894, 350.726 410.748 C 360.654 413.254, 363.071 413.469, 381.500 413.484 C 403.607 413.502, 409.385 412.713, 426.008 407.409 C 464.003 395.286, 492.188 367.749, 501.147 334 C 502.936 327.256, 503.403 322.814, 503.403 312.500 C 503.403 302.186, 502.936 297.744, 501.147 291 C 492.197 257.282, 463.694 229.415, 425.824 217.358 C 421.246 215.900, 417.380 214.616, 417.233 214.503 C 417.086 214.391, 418.313 211.419, 419.960 207.899 C 425.251 196.592, 427.254 187.010, 427.254 173 C 427.254 163.378, 426.760 158.658, 425.111 152.500 C 419.491 131.517, 406.326 113.110, 388.104 100.756 C 375.664 92.323, 359.341 86.129, 345.333 84.528 C 339.938 83.911, 339.043 84.053, 338.192 85.661 M 176.500 161.482 C 167.226 163.527, 159.759 166.671, 151.793 171.884 C 125.488 189.099, 115.760 219.243, 127.476 247.234 C 128.011 248.511, 125.962 247.825, 119.702 244.631 C 66.846 217.660, 4.962 257.670, 8.302 316.654 C 10.300 351.929, 35.767 380.886, 70.667 387.563 C 86.308 390.556, 100.082 388.780, 117.107 381.576 C 118.282 381.079, 119.068 381.750, 120.030 384.073 C 122.359 389.696, 129.725 398.729, 136.615 404.412 C 146.801 412.815, 160.961 419.719, 175.644 423.442 C 186.544 426.206, 186.283 426.352, 190.349 415.250 C 218.107 339.459, 235 292.035, 235 289.903 C 235 288.455, 234.067 286.084, 232.927 284.635 L 230.855 282 198.177 281.998 C 169.062 281.997, 165.121 281.806, 162.022 280.248 C 155.148 276.792, 154.828 278.179, 176.353 218 C 187.074 188.025, 196.154 162.713, 196.530 161.750 C 197.145 160.176, 196.474 160.008, 189.857 160.079 C 185.811 160.123, 179.800 160.754, 176.500 161.482" stroke="none" fill="#b7d5f4" fill-rule="evenodd"/></svg>