<svg xmlns="http://www.w3.org/2000/svg" width="256" height="256" viewBox="0 0 256 256" version="1.1"><path d="M 148.200 1.200 C 147.418 1.982, 147 6.089, 147 13 C 147 24.228, 147.633 26, 151.643 26 C 155.539 26, 157 22.455, 157 13 C 157 6.876, 156.558 3.814, 155.443 2.223 C 153.750 -0.195, 150.109 -0.709, 148.200 1.200 M 70.571 22.571 C 69.707 23.436, 69 25.099, 69 26.267 C 69 29.199, 87.843 48, 90.782 48 C 93.704 48, 96.481 43.759, 95.157 41.317 C 93.439 38.145, 75.336 21, 73.706 21 C 72.846 21, 71.436 21.707, 70.571 22.571 M 218.355 31.190 C 208.086 41.295, 206.463 44.063, 209.200 46.800 C 211.937 49.537, 214.705 47.914, 224.810 37.645 C 230.415 31.950, 235 26.775, 235 26.145 C 235 24.662, 231.338 21, 229.855 21 C 229.225 21, 224.050 25.585, 218.355 31.190 M 135.216 40.960 C 110.036 47.760, 89.769 70.458, 87.272 94.654 L 86.720 100 92.610 100.024 C 100.735 100.058, 106.257 101.487, 114.838 105.775 C 123.629 110.169, 133.089 119.641, 137.255 128.220 L 140.010 133.894 143.755 132.326 C 149.560 129.897, 163.108 130.221, 170.285 132.961 C 177.234 135.614, 186.605 143.895, 190.087 150.459 C 191.412 152.956, 192.795 155, 193.160 155 C 195.095 155, 206.240 140.979, 209.757 134.120 C 215.367 123.177, 217.411 113.369, 216.744 100.592 C 215.856 83.604, 209.659 69.729, 197.620 57.777 C 190.155 50.365, 182.899 45.824, 172.835 42.264 C 162.691 38.676, 145.836 38.091, 135.216 40.960 M 232.250 100.031 C 229.311 101.213, 229.102 106.449, 231.934 107.965 C 232.998 108.534, 237.978 109, 243 109 C 253.238 109, 256 108.048, 256 104.522 C 256 100.430, 252.583 98.992, 243.027 99.063 C 238.337 99.098, 233.488 99.534, 232.250 100.031" stroke="none" fill="#fbd324" fill-rule="evenodd"/><path d="M 79.111 100.628 C 66.576 103.185, 51.999 113.991, 45.678 125.413 C 40.527 134.719, 38.717 142.893, 39.281 154.297 C 39.559 159.909, 40.094 165.447, 40.471 166.604 C 41.094 168.514, 40.596 168.819, 35.088 169.903 C 14.657 173.922, 0.043 191.698, 0.011 212.568 C -0.016 229.830, 9.160 244.269, 25 251.891 L 32.500 255.500 121.500 255.791 C 201.747 256.053, 211.086 255.919, 216.462 254.429 C 247.963 245.702, 261.602 208.838, 243.449 181.489 C 234.609 168.172, 220.477 160.712, 203.804 160.562 L 195.108 160.484 191.525 153.323 C 186.970 144.218, 178.499 136.097, 170.285 132.961 C 163.108 130.221, 149.560 129.897, 143.755 132.326 L 140.010 133.894 137.255 128.220 C 127.444 108.014, 102.029 95.953, 79.111 100.628" stroke="none" fill="#a4d4f3" fill-rule="evenodd"/></svg>