<svg xmlns="http://www.w3.org/2000/svg" width="370" height="210" viewBox="0 0 370 210" version="1.1"><path d="" stroke="none" fill="#3cd4ec" fill-rule="evenodd"/><path d="M 117.010 14.103 C 112.890 15.166, 105.352 18.063, 100.258 20.541 C 92.639 24.247, 89.426 26.594, 82.141 33.773 C 76.602 39.232, 71.750 45.159, 69.185 49.601 C 66.931 53.506, 63.959 60.060, 62.581 64.164 C 61.203 68.268, 59.559 74.959, 58.927 79.033 C 58.267 83.286, 58.050 89.907, 58.418 94.579 C 58.770 99.054, 59.495 104.240, 60.029 106.102 C 60.563 107.963, 61 109.827, 61 110.243 C 61 110.660, 57.063 111.003, 52.250 111.006 C 47.438 111.009, 41.700 111.497, 39.500 112.090 C 37.300 112.684, 33.115 114.320, 30.201 115.726 C 27.286 117.132, 22.668 120.291, 19.937 122.746 C 17.207 125.201, 13.415 129.868, 11.511 133.117 C 9.607 136.365, 7.312 141.558, 6.412 144.656 C 5.241 148.684, 4.891 152.884, 5.183 159.394 C 5.541 167.358, 6.050 169.447, 9.236 176.047 C 11.520 180.776, 14.834 185.549, 18.114 188.829 C 21.183 191.898, 26.290 195.517, 30.459 197.577 C 34.624 199.636, 40.246 201.478, 44.034 202.025 C 47.790 202.568, 107.301 202.961, 186 202.963 C 299.892 202.965, 322.580 202.737, 328.270 201.531 C 331.993 200.742, 337.618 198.706, 340.770 197.008 C 343.921 195.309, 347.625 192.924, 349 191.706 C 350.375 190.489, 353.131 187.470, 355.125 184.997 C 357.119 182.524, 359.552 178.925, 360.531 177 C 361.510 175.075, 362.911 171.250, 363.644 168.500 C 364.377 165.750, 364.982 160.285, 364.988 156.355 C 364.995 152.031, 364.219 146.683, 363.023 142.808 C 361.935 139.287, 359.341 133.966, 357.258 130.985 C 355.174 128.003, 350.924 123.524, 347.813 121.032 C 344.701 118.539, 339.533 115.429, 336.328 114.119 C 332.095 112.389, 327.835 111.600, 320.760 111.236 L 311.021 110.734 311.608 105.911 C 311.931 103.259, 311.652 97.806, 310.988 93.794 C 310.324 89.782, 308.486 83.125, 306.904 79 C 305.301 74.821, 301.696 68.414, 298.763 64.530 C 295.869 60.696, 290.878 55.453, 287.673 52.879 C 284.468 50.305, 278.972 46.784, 275.460 45.055 C 271.947 43.326, 266.020 41.264, 262.287 40.473 C 258.554 39.682, 251.704 39.027, 247.064 39.017 C 242.424 39.008, 235.674 39.734, 232.064 40.630 C 228.454 41.527, 222.800 43.610, 219.500 45.259 C 216.200 46.909, 211.860 49.550, 209.856 51.129 C 207.852 52.708, 205.961 54, 205.655 54 C 205.348 54, 203.081 50.962, 200.616 47.250 C 198.152 43.538, 194.192 38.400, 191.818 35.834 C 189.443 33.267, 184.009 28.686, 179.742 25.653 C 175.475 22.620, 168.500 18.799, 164.242 17.160 C 159.984 15.522, 153.830 13.691, 150.566 13.091 C 147.303 12.491, 140.103 12.039, 134.566 12.086 C 128.129 12.140, 121.799 12.868, 117.010 14.103" stroke="none" fill="#34d4ec" fill-rule="evenodd"/></svg>