<svg xmlns="http://www.w3.org/2000/svg" width="512" height="512" viewBox="0 0 512 512" version="1.1"><path d="M 252.757 318 L 253.013 464 255.542 464 C 259.138 464, 263.047 461.132, 264.636 457.328 C 265.512 455.231, 266 450.060, 266 442.868 L 266 431.672 272.882 438.316 C 276.667 441.970, 281.050 445.449, 282.621 446.046 C 291.288 449.341, 300.615 439.726, 297.702 430.500 C 297.139 428.716, 290.516 421.207, 281.359 411.970 L 265.963 396.440 266.231 372.558 L 266.500 348.677 283.223 365.088 L 299.946 381.500 300.223 405.233 L 300.500 428.965 303.695 432.158 C 306.399 434.861, 307.655 435.363, 311.870 435.426 C 321.513 435.569, 324.849 430.501, 324.944 415.566 L 325 406.632 334.365 415.816 C 343.010 424.293, 344.038 425, 347.717 425 C 355.711 425, 361.456 418.150, 360.237 410.070 C 359.846 407.474, 357.654 404.496, 351.218 397.820 L 342.715 389 352.893 389 C 364.426 389, 367.333 387.842, 369.636 382.328 C 372.045 376.562, 371.411 373.176, 367.118 368.882 L 363.235 365 340.834 365 L 318.433 365 300.881 347.500 L 283.329 330 307.176 330 L 331.023 330 345.762 345.089 C 353.868 353.388, 361.715 360.813, 363.200 361.589 C 366.686 363.411, 372.344 363.391, 375.915 361.544 C 378.707 360.100, 382 354.701, 382 351.567 C 382 347.871, 378.924 343.128, 372.403 336.768 L 365.500 330.036 377.800 330.018 C 391.141 329.998, 394.398 329.094, 397.352 324.586 C 399.435 321.406, 399.483 314.134, 397.439 311.217 C 394.465 306.970, 390.911 306, 378.329 306 L 366.558 306 372.666 299.750 C 379.881 292.368, 381.249 289.982, 381.179 284.911 C 381.113 280.095, 378.836 276.625, 374.344 274.493 C 367.400 271.198, 365.218 272.463, 347.462 290.084 L 331.424 306 306.973 306 L 282.522 306 299.500 289 L 316.478 272 337.989 271.944 C 362.136 271.880, 365.225 271.293, 368.715 266.102 C 371.534 261.911, 371.622 257.532, 368.974 253.190 C 366.113 248.497, 361.731 247, 350.851 247 L 341.638 247 350.233 238.217 C 357.056 231.244, 358.980 228.625, 359.563 225.514 C 361.064 217.512, 353.550 209.924, 345.601 211.415 C 342.651 211.968, 339.799 214.055, 332.899 220.707 L 324 229.285 324 218.865 C 324 207.426, 323.173 205.175, 317.989 202.494 C 313.019 199.924, 308.445 200.565, 304.235 204.421 L 300.500 207.843 300.199 230.733 L 299.898 253.623 282.449 271.051 L 265 288.479 265 264.550 L 265 240.622 281.500 223.941 C 297.598 207.666, 298 207.157, 298 203.034 C 298 194.913, 292.166 189.312, 284.744 190.308 C 281.344 190.764, 279.435 192.103, 272.847 198.652 L 265 206.453 265 193.361 C 265 181.599, 264.788 180, 262.912 177.615 C 260.759 174.878, 256.089 172, 253.800 172 C 252.738 172, 252.547 198.760, 252.757 318 M 206.426 232.500 C 206.427 244.600, 206.571 249.413, 206.747 243.195 C 206.923 236.977, 206.922 227.077, 206.746 221.195 C 206.569 215.313, 206.425 220.400, 206.426 232.500 M 151.250 247.735 C 153.863 247.941, 158.137 247.941, 160.750 247.735 C 163.363 247.529, 161.225 247.360, 156 247.360 C 150.775 247.360, 148.637 247.529, 151.250 247.735 M 223.489 271.750 C 232.833 281.238, 240.820 289, 241.239 289 C 241.658 289, 241.921 286.863, 241.825 284.250 L 241.651 279.500 241.259 283.923 L 240.868 288.346 223.684 271.423 L 206.500 254.500 223.489 271.750 M 158.304 271.747 C 164.247 271.924, 173.697 271.923, 179.304 271.745 C 184.912 271.567, 180.050 271.422, 168.500 271.423 C 156.950 271.424, 152.362 271.570, 158.304 271.747 M 202.986 285.250 C 210.403 292.813, 216.591 299, 216.736 299 C 217.453 299, 216.023 297.514, 203.250 284.986 L 189.500 271.500 202.986 285.250 M 160.487 291.750 L 175.475 307 198.987 306.769 L 222.500 306.539 199 306.253 L 175.500 305.967 160.500 291.233 L 145.500 276.500 160.487 291.750 M 134.465 299.964 L 140.367 305.929 129.433 306.252 L 118.500 306.575 130.471 306.788 L 142.442 307 136 300.500 C 132.457 296.925, 129.334 294, 129.060 294 C 128.787 294, 131.219 296.684, 134.465 299.964 M 133.264 330.718 C 134.784 330.947, 137.034 330.941, 138.264 330.704 C 139.494 330.467, 138.250 330.279, 135.500 330.286 C 132.750 330.294, 131.744 330.488, 133.264 330.718 M 186.306 330.747 C 192.800 330.922, 203.150 330.921, 209.306 330.746 C 215.463 330.571, 210.150 330.428, 197.500 330.429 C 184.850 330.429, 179.813 330.573, 186.306 330.747" stroke="none" fill="#8db9d9" fill-rule="evenodd"/><path d="M 246.904 174.665 C 242.353 177.490, 241.641 179.743, 241.186 192.757 L 240.758 205.014 233.895 198.540 C 224.135 189.332, 217.802 188.319, 211.750 194.997 C 208.770 198.285, 208.095 203.347, 210.107 207.316 C 210.716 208.517, 217.869 216.250, 226.003 224.500 L 240.790 239.500 241.288 264.250 C 241.562 277.863, 241.480 289, 241.106 289 C 240.731 289, 232.680 281.208, 223.213 271.685 L 206 254.370 206 232.136 C 206 207.018, 205.535 204.957, 199.272 202.340 C 194.498 200.346, 190.053 201.292, 186.425 205.076 C 183.618 208.004, 183.480 208.589, 183 219.594 L 182.500 231.061 174.500 222.958 C 170.100 218.501, 165.285 214.212, 163.800 213.427 C 155.970 209.289, 147 215.056, 147 224.228 C 147 228.453, 148.528 230.706, 157.868 240.250 L 165.453 248 154.803 248 C 144.811 248, 143.964 248.160, 141.084 250.583 C 135.372 255.389, 135.334 263.118, 140.997 268.250 L 144.032 271 166.701 271 L 189.370 271 206.672 288.199 C 218.473 299.931, 223.580 305.648, 222.737 306.184 C 222.056 306.616, 211.167 306.976, 198.537 306.985 L 175.574 307 158.970 290.500 L 142.367 274 137.583 274 C 133.477 274, 132.319 274.481, 129.400 277.400 C 126.493 280.307, 126 281.485, 126 285.522 C 126 290.084, 126.278 290.529, 134.177 298.622 L 142.355 307 129.742 307 C 122.806 307, 115.976 307.439, 114.566 307.975 C 113.155 308.511, 111.102 310.424, 110.004 312.225 C 105.959 318.861, 108.345 325.938, 115.731 329.205 C 119.789 331, 121.487 331.153, 130.410 330.523 L 140.500 329.810 133.770 336.787 C 124.833 346.052, 123.421 349.869, 126.516 356.393 C 128.495 360.562, 132.764 363, 138.088 363 C 142.283 363, 142.693 362.676, 158.970 346.500 L 175.574 330 200.026 330 L 224.479 330 207 347.500 L 189.521 365 167.211 365 C 149.225 365, 144.332 365.294, 141.967 366.517 C 136.491 369.349, 134.418 377.040, 137.517 383.033 C 139.970 387.776, 143.592 389, 155.178 389 L 165.456 389 157.339 397.250 C 148.081 406.660, 147 408.380, 147 413.712 C 147 420.489, 152.189 425, 159.985 425 C 163.758 425, 164.754 424.340, 173.035 416.357 L 182 407.715 182 416.390 C 182 429.424, 184.838 434.288, 193.239 435.651 C 197.659 436.369, 202.447 433.954, 205.040 429.701 C 206.816 426.789, 206.997 424.511, 207.039 404.500 L 207.086 382.500 224.010 365 L 240.934 347.500 240.967 372.012 L 241 396.524 225.539 411.961 C 217.035 420.452, 209.559 428.651, 208.924 430.182 C 205.239 439.079, 215.493 449.388, 224.627 445.968 C 226.207 445.377, 230.537 441.891, 234.250 438.223 L 241 431.554 241 442.309 C 241 449.187, 241.497 454.254, 242.379 456.364 C 243.955 460.136, 248.385 464, 251.135 464 C 252.947 464, 253 459.827, 253 318.500 C 253 180.585, 252.909 173.001, 251.250 173.027 C 250.287 173.041, 248.332 173.778, 246.904 174.665 M 372 336.500 C 374.987 339.525, 377.657 342, 377.932 342 C 378.207 342, 375.987 339.525, 373 336.500 C 370.013 333.475, 367.343 331, 367.068 331 C 366.793 331, 369.013 333.475, 372 336.500" stroke="none" fill="#9dcdf1" fill-rule="evenodd"/><path d="M 286.500 49.161 C 254.696 55.122, 227.898 75.142, 213.630 103.599 L 210.070 110.698 202.285 111.315 C 184.541 112.722, 164.003 120.837, 149.700 132.094 L 144.899 135.872 138.509 133.467 C 128.467 129.687, 113.390 127, 102.224 127 C 75.226 127, 51.546 136.373, 31.885 154.842 C 18.165 167.730, 9.163 182.447, 3.345 201.500 C 0.781 209.899, 0.598 211.702, 0.607 228.500 C 0.615 243.882, 0.932 247.639, 2.787 254.329 C 12.297 288.622, 37.065 314.687, 70.918 326.027 C 80.393 329.200, 94.153 330.896, 111 330.966 L 117.500 330.993 114.367 329.082 C 109.888 326.351, 108 323.170, 108 318.354 C 108 313.087, 111.581 308.488, 116.814 307.035 C 118.841 306.472, 124.932 306.009, 130.349 306.006 L 140.198 306 133.132 298.434 C 125.095 289.829, 123.794 286.344, 126.493 280.656 C 129.434 274.458, 135.603 271.972, 141.709 274.523 C 143.959 275.463, 151.406 282.006, 160.508 291.040 L 175.581 306 199.882 306 L 224.183 306 206.841 289.045 L 189.500 272.089 170 272.034 C 159.275 272.003, 148.794 271.696, 146.708 271.351 C 138.726 270.032, 133.976 261.468, 137.328 254.438 C 139.949 248.942, 143.044 247.609, 154.227 247.160 L 164.129 246.762 155.565 238.010 C 147.020 229.278, 147 229.246, 147 224.029 C 147 219.416, 147.400 218.400, 150.400 215.400 C 153.309 212.491, 154.483 212, 158.535 212 C 163.150 212, 163.500 212.226, 172.447 221 C 177.494 225.950, 181.934 230, 182.312 230 C 182.690 230, 183 225.150, 183 219.223 C 183 207.302, 183.776 205.201, 189.223 202.384 C 193.012 200.426, 199.270 201.043, 202.216 203.665 C 206.461 207.446, 207 210.775, 207 233.229 L 207 254.522 224 271.500 L 241 288.478 241 263.976 L 241 239.475 225.897 224.487 C 217.591 216.244, 210.158 208.034, 209.380 206.242 C 205.765 197.912, 214.525 188.158, 223.580 190.431 C 225.098 190.812, 229.639 194.322, 233.670 198.231 L 241 205.338 241 193.317 C 241 182.451, 241.220 180.969, 243.287 177.898 C 245.832 174.116, 251.920 171.512, 255.891 172.509 C 257.226 172.844, 259.821 174.621, 261.659 176.459 L 265 179.800 265 193.127 L 265 206.453 272.847 198.652 C 279.435 192.103, 281.344 190.764, 284.744 190.308 C 292.166 189.312, 298 194.913, 298 203.034 C 298 207.157, 297.598 207.666, 281.500 223.941 L 265 240.622 265 264.550 L 265 288.479 282.449 271.051 L 299.898 253.623 300.199 230.733 L 300.500 207.843 304.235 204.421 C 308.445 200.565, 313.019 199.924, 317.989 202.494 C 323.173 205.175, 324 207.426, 324 218.865 L 324 229.285 332.899 220.707 C 339.799 214.055, 342.651 211.968, 345.601 211.415 C 353.550 209.924, 361.064 217.512, 359.563 225.514 C 358.980 228.625, 357.056 231.244, 350.233 238.217 L 341.638 247 350.851 247 C 361.731 247, 366.113 248.497, 368.974 253.190 C 371.622 257.532, 371.534 261.911, 368.715 266.102 C 365.225 271.293, 362.136 271.880, 337.989 271.944 L 316.478 272 299.500 289 L 282.522 306 306.973 306 L 331.424 306 347.462 290.084 C 365.218 272.463, 367.400 271.198, 374.344 274.493 C 378.836 276.625, 381.113 280.095, 381.179 284.911 C 381.249 289.982, 379.881 292.368, 372.666 299.750 L 366.558 306 378.329 306 C 390.911 306, 394.465 306.970, 397.439 311.217 C 399.480 314.130, 399.436 321.405, 397.358 324.576 C 394.641 328.723, 392.087 329.473, 378.500 330.108 C 370.809 330.468, 377.751 330.634, 395.500 330.517 C 424.476 330.324, 425.841 330.227, 435.500 327.659 C 463.187 320.300, 487.086 301.342, 500.168 276.363 C 505.339 266.489, 509.661 253.732, 510.631 245.486 C 510.982 242.496, 511.659 240.289, 512.135 240.583 C 512.611 240.877, 512.955 234.904, 512.900 227.309 C 512.845 219.714, 512.479 214.625, 512.086 216 C 511.512 218.008, 511.236 217.377, 510.681 212.788 C 510.302 209.647, 508.815 203.347, 507.378 198.788 C 494.344 157.463, 458.080 129.244, 415.450 127.254 L 404.400 126.739 402.516 120.119 C 401.480 116.479, 398.496 109.220, 395.884 103.989 C 381.791 75.758, 356.510 56.328, 325.500 49.894 C 315.679 47.856, 295.486 47.477, 286.500 49.161 M 0.395 228.500 C 0.396 236.200, 0.553 239.218, 0.743 235.206 C 0.934 231.195, 0.932 224.895, 0.741 221.206 C 0.549 217.518, 0.393 220.800, 0.395 228.500 M 295.308 330.748 C 302.353 330.920, 313.603 330.919, 320.308 330.747 C 327.014 330.574, 321.250 330.433, 307.500 330.434 C 293.750 330.434, 288.264 330.576, 295.308 330.748" stroke="none" fill="#49a7fe" fill-rule="evenodd"/></svg>