<svg xmlns="http://www.w3.org/2000/svg" width="512" height="512" viewBox="0 0 512 512" version="1.1"><path d="M 427.305 98.750 C 426.957 99.713, 425.652 102.849, 424.405 105.720 C 423.157 108.590, 420.075 113.144, 417.555 115.838 C 415.035 118.532, 410.961 121.804, 408.501 123.109 C 406.042 124.413, 403.812 126.048, 403.546 126.740 C 403.280 127.433, 403.280 128.567, 403.546 129.260 C 403.812 129.952, 406.071 131.602, 408.566 132.926 C 411.062 134.250, 415.271 137.705, 417.921 140.604 C 420.798 143.752, 423.753 148.417, 425.257 152.187 C 427.297 157.300, 428.243 158.557, 430.235 158.802 C 432.414 159.069, 432.944 158.419, 434.886 153.092 C 436.092 149.786, 438.838 144.854, 440.990 142.132 C 443.141 139.410, 447.624 135.503, 450.951 133.449 C 454.548 131.229, 457 129.020, 457 128 C 457 126.980, 454.548 124.771, 450.951 122.551 C 447.624 120.497, 443.141 116.590, 440.990 113.868 C 438.838 111.146, 436.100 106.237, 434.905 102.959 C 433.075 97.942, 432.353 97, 430.335 97 C 428.959 97, 427.668 97.746, 427.305 98.750 M 299.100 114.380 C 298.470 115.139, 296.644 119.637, 295.042 124.375 C 293.441 129.114, 290.863 135.354, 289.315 138.243 C 287.767 141.133, 283.125 146.900, 279 151.060 C 273.403 156.705, 269.343 159.727, 263 162.971 C 258.325 165.361, 254.204 167.767, 253.843 168.318 C 253.481 168.868, 253.429 169.954, 253.727 170.731 C 254.025 171.509, 256.738 173.236, 259.755 174.571 C 262.773 175.905, 268.041 178.994, 271.462 181.436 C 274.883 183.877, 279.128 187.521, 280.894 189.532 C 282.661 191.544, 285.688 195.573, 287.622 198.486 C 289.556 201.399, 292.855 208.668, 294.953 214.641 C 297.896 223.016, 299.215 225.568, 300.722 225.798 C 301.796 225.962, 303.138 225.512, 303.704 224.798 C 304.270 224.084, 305.966 219.675, 307.473 215 C 308.980 210.325, 311.937 203.543, 314.044 199.930 C 316.167 196.290, 320.922 190.491, 324.706 186.930 C 328.793 183.082, 334.942 178.693, 340.018 176 C 346.306 172.664, 348.500 170.986, 348.500 169.513 C 348.500 168.047, 346.639 166.602, 341.412 164.009 C 337.514 162.075, 331.769 158.522, 328.646 156.113 C 325.523 153.704, 320.908 148.992, 318.390 145.642 C 315.872 142.292, 313.005 137.965, 312.018 136.026 C 311.031 134.087, 308.801 128.463, 307.062 123.528 C 305.323 118.593, 303.360 114.213, 302.700 113.793 C 302.040 113.374, 301.218 113.024, 300.872 113.015 C 300.527 113.007, 299.730 113.621, 299.100 114.380 M 410.291 234.250 C 409.767 234.938, 408.308 238.425, 407.048 242 C 405.789 245.575, 402.792 251.480, 400.388 255.122 C 397.981 258.769, 393.654 263.549, 390.758 265.760 C 387.866 267.969, 383.109 270.974, 380.186 272.438 C 376.524 274.271, 374.971 275.612, 375.191 276.752 C 375.366 277.662, 378.312 280.002, 381.737 281.953 C 385.162 283.904, 389.947 287.168, 392.370 289.206 C 394.793 291.244, 398.608 295.656, 400.847 299.009 C 403.087 302.363, 405.938 308.271, 407.184 312.138 C 408.524 316.301, 410.217 319.581, 411.331 320.177 C 412.623 320.869, 413.555 320.845, 414.299 320.101 C 414.896 319.504, 416.606 315.664, 418.100 311.566 C 419.594 307.468, 422.480 301.609, 424.513 298.546 C 426.547 295.482, 430.301 291.188, 432.855 289.003 C 435.410 286.819, 440.313 283.646, 443.750 281.953 C 448.050 279.835, 450 278.298, 450 277.028 C 450 275.768, 447.696 273.915, 442.750 271.198 C 438.478 268.852, 433.190 264.792, 429.875 261.313 C 426.781 258.067, 423.238 253.428, 422.002 251.004 C 420.765 248.579, 418.911 244.149, 417.882 241.157 C 416.853 238.165, 415.503 235.106, 414.883 234.359 C 414.263 233.611, 413.190 233, 412.500 233 C 411.810 233, 410.816 233.563, 410.291 234.250 M 219.938 338.651 C 214.197 343.324, 203.635 351.087, 196.467 355.903 C 189.299 360.718, 178.724 367.177, 172.967 370.255 C 167.210 373.333, 158.275 377.704, 153.111 379.967 C 147.947 382.231, 138.280 385.883, 131.627 388.083 C 124.975 390.283, 114.125 393.174, 107.516 394.508 C 100.907 395.842, 89.236 397.430, 81.580 398.037 C 73.925 398.644, 65.487 398.842, 62.830 398.477 C 59.505 398.019, 58 398.166, 58 398.947 C 58 399.571, 59.013 401.525, 60.250 403.290 C 61.488 405.056, 62.725 406.725, 63 407 C 63.275 407.275, 64.597 409.075, 65.938 411 C 67.279 412.925, 70.429 416.903, 72.938 419.840 C 75.447 422.777, 82.450 430.269, 88.500 436.489 C 94.550 442.709, 101.975 449.767, 105 452.174 C 108.025 454.580, 114.117 459.333, 118.537 462.735 C 122.958 466.137, 130.833 471.435, 136.037 474.508 C 141.242 477.582, 151.350 482.936, 158.500 486.407 C 165.650 489.878, 176.225 494.393, 182 496.441 C 187.775 498.489, 193.418 500.524, 194.539 500.964 C 195.660 501.405, 200.610 502.733, 205.539 503.917 C 210.468 505.100, 216.300 506.485, 218.500 506.994 C 220.700 507.504, 225.650 508.397, 229.500 508.980 C 233.350 509.562, 239.650 510.442, 243.500 510.935 C 247.350 511.428, 259.725 511.806, 271 511.775 C 282.275 511.745, 296 511.125, 301.500 510.398 C 307 509.671, 315.100 508.359, 319.500 507.481 C 323.900 506.604, 333.350 504.274, 340.500 502.303 C 347.650 500.332, 354.850 498.145, 356.500 497.443 C 358.150 496.741, 361.075 495.489, 363 494.661 C 364.925 493.833, 368.921 492.205, 371.880 491.042 C 374.838 489.879, 382.038 486.451, 387.880 483.425 C 393.721 480.399, 399.400 477.377, 400.500 476.711 C 401.600 476.045, 407.450 472.176, 413.500 468.113 C 419.550 464.050, 425.884 459.550, 427.576 458.113 C 429.268 456.676, 432.418 454.187, 434.576 452.582 C 436.734 450.976, 444.366 443.776, 451.535 436.582 C 458.704 429.387, 468.196 418.775, 472.628 413 C 477.060 407.225, 483.372 398.225, 486.655 393 C 489.938 387.775, 493.833 381.146, 495.312 378.268 C 496.790 375.391, 497.968 371.791, 497.930 370.268 C 497.891 368.746, 497.554 366.750, 497.180 365.833 C 496.806 364.915, 495.247 363.183, 493.715 361.983 C 492.126 360.737, 489.505 359.800, 487.612 359.800 C 485.473 359.800, 481.840 361.295, 477.397 364.004 C 473.603 366.316, 465.413 370.659, 459.196 373.655 C 452.979 376.650, 444.654 380.211, 440.696 381.567 C 436.738 382.923, 429.225 385.122, 424 386.454 C 418.775 387.786, 410.450 389.612, 405.500 390.512 C 400.250 391.466, 389 392.316, 378.500 392.551 C 364.226 392.871, 357.865 392.556, 347.772 391.030 C 340.772 389.971, 331.997 388.353, 328.272 387.435 C 324.548 386.516, 317.675 384.498, 313 382.950 C 308.325 381.402, 301.214 378.771, 297.198 377.103 C 293.182 375.435, 286.657 372.318, 282.698 370.176 C 278.739 368.034, 273.697 365.293, 271.493 364.085 C 269.289 362.877, 264.141 359.421, 260.052 356.404 C 255.962 353.388, 250.344 349.026, 247.565 346.710 C 244.787 344.395, 239.783 339.722, 236.445 336.327 L 230.376 330.155 219.938 338.651" stroke="none" fill="#fcd464" fill-rule="evenodd"/><path d="M 238 1.572 C 232.225 2.312, 223.030 3.875, 217.567 5.045 C 212.104 6.214, 203.779 8.279, 199.067 9.633 C 194.355 10.988, 186.675 13.472, 182 15.155 C 177.325 16.837, 167.200 21.235, 159.500 24.928 C 151.800 28.621, 141.225 34.248, 136 37.434 C 130.775 40.619, 121.460 47.009, 115.301 51.633 C 109.142 56.257, 99.074 64.858, 92.928 70.747 C 86.783 76.636, 78.161 85.739, 73.769 90.977 C 69.377 96.215, 61.760 106.552, 56.842 113.949 C 51.924 121.346, 44.791 133.721, 40.990 141.449 C 37.188 149.177, 32.037 161.088, 29.541 167.918 C 27.046 174.748, 23.477 186.448, 21.611 193.918 C 19.745 201.388, 17.386 212.900, 16.369 219.500 C 14.940 228.769, 14.519 237.189, 14.516 256.500 C 14.513 275.689, 14.931 284.173, 16.315 293 C 17.307 299.325, 19.411 309.900, 20.992 316.500 C 22.572 323.100, 25.720 333.900, 27.986 340.500 C 30.252 347.100, 35.645 359.700, 39.971 368.500 C 44.297 377.300, 50.124 388.082, 52.918 392.459 C 55.713 396.837, 58 399.832, 58 399.115 C 58 398.133, 59.188 397.976, 62.830 398.477 C 65.487 398.842, 73.925 398.644, 81.580 398.037 C 89.236 397.430, 100.907 395.842, 107.516 394.508 C 114.125 393.174, 124.975 390.283, 131.627 388.083 C 138.280 385.883, 147.947 382.231, 153.111 379.967 C 158.275 377.704, 167.107 373.389, 172.738 370.378 C 178.369 367.367, 188.269 361.402, 194.738 357.122 C 201.207 352.842, 211.217 345.551, 216.982 340.920 C 222.747 336.289, 228.093 332.013, 228.863 331.418 C 230.001 330.537, 228.978 328.797, 223.381 322.095 C 219.596 317.563, 213.874 309.950, 210.663 305.177 C 207.453 300.405, 201.800 290.401, 198.100 282.948 C 194.401 275.494, 189.740 264.469, 187.742 258.448 C 185.744 252.426, 182.929 241.875, 181.486 235 C 179.401 225.065, 178.747 218.571, 178.296 203.350 C 177.931 191.040, 178.157 180.682, 178.930 174.350 C 179.591 168.932, 181.260 159.393, 182.638 153.152 C 184.017 146.910, 186.925 136.640, 189.101 130.329 C 191.277 124.018, 195.697 113.600, 198.923 107.177 C 202.149 100.755, 207.455 91.450, 210.714 86.500 C 213.974 81.550, 220.019 73.450, 224.148 68.500 C 228.277 63.550, 235.258 56.125, 239.661 52 C 244.065 47.875, 251.124 41.860, 255.348 38.633 C 259.573 35.406, 267.860 29.940, 273.764 26.486 C 279.669 23.033, 285.738 19.064, 287.250 17.667 C 289.490 15.598, 290 14.267, 290 10.487 C 290 6.691, 289.468 5.314, 287.077 2.923 L 284.154 0 266.327 0.112 C 256.522 0.174, 243.775 0.831, 238 1.572" stroke="none" fill="#fce37b" fill-rule="evenodd"/></svg>