<svg xmlns="http://www.w3.org/2000/svg" width="512" height="512" viewBox="0 0 512 512" version="1.1"><path d="M 190.230 2.015 C 160.558 9.790, 138.877 35.401, 135.429 66.750 C 134.804 72.434, 134.530 73, 132.409 73 C 131.126 73, 126.669 74.082, 122.504 75.404 C 98.591 82.998, 82.232 105.183, 81.816 130.583 L 81.684 138.665 75.886 139.863 C 56.526 143.861, 37.805 162.294, 32.528 182.552 C 30.584 190.016, 30.562 204.899, 32.484 212.279 C 37.943 233.235, 55.050 250.043, 76.460 255.485 C 81.671 256.810, 104.231 257, 256 257 C 448.308 257, 434.308 257.482, 448.902 250.355 C 462.990 243.476, 475.360 228.133, 479.498 212.408 C 481.542 204.638, 481.529 190.836, 479.469 182.855 C 473.779 160.803, 455.436 143.865, 432.324 139.321 L 424.148 137.714 424.110 130.390 C 423.959 101.466, 402.477 77.468, 372.576 72.819 C 365.343 71.695, 359.122 72.143, 347.987 74.590 C 345.547 75.126, 345.438 74.918, 344.254 67.480 C 339.179 35.580, 304.365 17.543, 275.689 31.957 L 271.500 34.063 269.500 31.308 C 258.695 16.425, 242.384 5.469, 225.303 1.621 C 215.434 -0.602, 199.535 -0.423, 190.230 2.015" stroke="none" fill="#6cbcfb" fill-rule="evenodd"/><path d="M 97.923 277.923 C 95.138 280.708, 95 281.260, 95 289.582 L 95 298.317 88.587 292.159 C 82.939 286.736, 81.701 286, 78.223 286 C 72.754 286, 69 289.754, 69 295.223 C 69 298.701, 69.736 299.939, 75.159 305.587 L 81.317 312 72.582 312 C 64.260 312, 63.708 312.138, 60.923 314.923 C 58.932 316.914, 58 318.849, 58 320.989 C 58 328.218, 62.338 331, 73.609 331 L 81.317 331 75.159 337.413 C 69.902 342.888, 69 344.363, 69 347.490 C 69 350.240, 69.760 351.914, 72.048 354.202 C 74.729 356.883, 75.591 357.184, 79.193 356.701 C 82.485 356.259, 84.437 355.015, 89.144 350.357 L 95 344.563 95 352.216 C 95 361.768, 96.046 364.578, 100.372 366.640 C 104.488 368.603, 108.193 367.898, 111.586 364.505 C 113.768 362.323, 114 361.255, 114 353.387 L 114 344.683 120.413 350.841 C 125.888 356.098, 127.363 357, 130.490 357 C 135.586 357, 140 352.586, 140 347.490 C 140 344.363, 139.098 342.888, 133.841 337.413 L 127.683 331 135.391 331 C 144.088 331, 147.986 329.520, 149.805 325.528 C 151.747 321.267, 151.226 318.072, 148.077 314.923 C 145.292 312.138, 144.740 312, 136.418 312 L 127.683 312 133.841 305.587 C 139.098 300.112, 140 298.637, 140 295.510 C 140 290.414, 135.586 286, 130.490 286 C 127.363 286, 125.888 286.902, 120.413 292.159 L 114 298.317 114 289.582 C 114 281.260, 113.862 280.708, 111.077 277.923 C 108.913 275.759, 107.205 275, 104.500 275 C 101.795 275, 100.087 275.759, 97.923 277.923 M 402.704 286.596 C 398.999 288.605, 398 291.605, 398 300.724 L 398 308.317 391.587 302.159 C 386.112 296.902, 384.637 296, 381.510 296 C 376.414 296, 372 300.414, 372 305.510 C 372 308.630, 372.898 310.108, 378.061 315.485 L 384.122 321.796 374.974 322.148 C 366.393 322.478, 365.676 322.674, 363.413 325.306 C 360.160 329.089, 360.227 333.928, 363.589 337.923 C 366.132 340.945, 366.341 341, 375.305 341 L 384.432 341 379.330 346.250 C 371.903 353.894, 370.690 357.032, 373.110 362.343 C 374.518 365.431, 378.036 367.332, 382.130 367.215 C 384.647 367.144, 386.660 365.797, 391.660 360.841 L 398 354.558 398 363.356 C 398 371.747, 398.135 372.289, 400.923 375.077 C 403.087 377.241, 404.795 378, 407.500 378 C 410.205 378, 411.913 377.241, 414.077 375.077 C 416.865 372.289, 417 371.747, 417 363.356 L 417 354.558 423.340 360.841 C 428.340 365.797, 430.353 367.144, 432.870 367.215 C 436.964 367.332, 440.482 365.431, 441.890 362.343 C 444.310 357.032, 443.097 353.894, 435.670 346.250 L 430.568 341 439.610 341 C 447.697 341, 448.873 340.763, 450.752 338.750 C 453.639 335.656, 454.479 331.569, 452.972 327.933 C 451.153 323.541, 447.366 322, 438.391 322 L 430.683 322 436.841 315.587 C 442.098 310.112, 443 308.637, 443 305.510 C 443 300.414, 438.586 296, 433.490 296 C 430.363 296, 428.888 296.902, 423.413 302.159 L 417 308.317 417 300.609 C 417 291.912, 415.520 288.014, 411.528 286.195 C 408.128 284.646, 406.134 284.737, 402.704 286.596 M 253.923 296.923 C 251.168 299.678, 251 300.318, 251 308.031 L 251 316.215 245.038 310.695 C 238.248 304.410, 234.593 303.125, 230.103 305.447 C 226.587 307.265, 225 309.770, 225 313.500 C 225 317.140, 226.502 319.746, 231.697 325.117 L 236.162 329.734 227.915 330.211 C 220.184 330.659, 219.490 330.887, 216.834 333.860 C 213.697 337.370, 213.272 340.691, 215.425 344.855 C 217.432 348.736, 220.940 350, 229.706 350 L 237.317 350 231.159 356.413 C 226.042 361.742, 225 363.411, 225 366.279 C 225 370.782, 228.188 374.757, 232.438 375.554 C 236.687 376.351, 239.161 375.072, 245.750 368.670 L 251 363.568 251 371.707 C 251 378.928, 251.282 380.182, 253.497 382.814 C 256.717 386.641, 260.173 387.486, 264.400 385.481 C 268.828 383.379, 270 380.399, 270 371.237 L 270 363.568 275.250 368.670 C 281.839 375.072, 284.313 376.351, 288.562 375.554 C 292.812 374.757, 296 370.782, 296 366.279 C 296 363.411, 294.958 361.742, 289.841 356.413 L 283.683 350 291.391 350 C 300.088 350, 303.986 348.520, 305.805 344.528 C 307.692 340.388, 307.221 337.279, 304.195 333.893 C 301.600 330.988, 300.772 330.707, 293.079 330.127 L 284.767 329.500 290.384 323.212 C 296.392 316.486, 297.105 314.038, 294.517 309.034 C 292.887 305.881, 287.503 303.527, 284.403 304.611 C 283.356 304.977, 279.688 308.014, 276.250 311.359 L 270 317.442 270 308.798 C 270 300.957, 269.759 299.867, 267.411 297.077 C 263.810 292.797, 258.114 292.732, 253.923 296.923 M 344.750 399.080 C 341.563 400.936, 340 405.572, 340 413.166 L 340 420.432 334.750 415.272 C 326.737 407.396, 321.797 406.393, 316.868 411.641 C 315.250 413.363, 314.545 415.307, 314.545 418.050 C 314.545 421.554, 315.256 422.705, 320.994 428.494 L 327.442 435 318.332 435 C 311.131 435, 308.776 435.367, 307.097 436.750 C 301.783 441.127, 303.080 449.882, 309.435 452.537 C 311.361 453.342, 315.944 454, 319.620 454 L 326.304 454 320.789 459.783 C 317.755 462.963, 314.954 466.571, 314.564 467.799 C 313.460 471.277, 315.777 476.833, 319.034 478.517 C 324.273 481.227, 326.694 480.460, 333.482 473.942 L 339.790 467.885 340.145 476.420 C 340.467 484.161, 340.756 485.211, 343.250 487.705 C 347.144 491.598, 353.242 491.583, 356.606 487.672 C 358.752 485.176, 359 483.946, 359 475.780 L 359 466.672 365.903 473.336 C 373.299 480.476, 375.620 481.282, 380.909 478.547 C 384.330 476.778, 386.471 472.037, 385.550 468.269 C 385.178 466.746, 382.378 462.962, 379.328 459.861 L 373.782 454.222 381.823 453.856 C 390.897 453.444, 394.840 451.429, 396.149 446.536 C 397.078 443.061, 394.990 437.600, 392.150 436.080 C 391.040 435.486, 386.177 435, 381.345 435 L 372.558 435 379.006 428.494 C 384.744 422.705, 385.455 421.554, 385.455 418.050 C 385.455 411.322, 379.216 406.848, 373.051 409.156 C 371.648 409.681, 367.913 412.659, 364.750 415.774 L 359 421.437 359 412.173 C 359 403.671, 358.798 402.707, 356.545 400.455 C 353.908 397.817, 348.084 397.138, 344.750 399.080 M 152.357 419.992 C 148.228 421.658, 147 424.856, 147 433.938 L 147 442.432 141.750 437.330 C 133.268 429.088, 129.160 428.024, 124.069 432.750 C 118.861 437.583, 119.536 442.305, 126.512 449.840 L 132.024 455.794 123.426 456.147 C 115.451 456.474, 114.652 456.704, 112.413 459.306 C 109.027 463.242, 109.123 468.850, 112.636 472.364 C 115.095 474.823, 115.880 475, 124.295 475 L 133.317 475 127.159 481.413 C 121.909 486.881, 121 488.366, 121 491.479 C 121 496.412, 122.511 498.898, 126.533 500.578 C 131.156 502.510, 134.153 501.217, 141.250 494.226 L 147 488.563 147 497.645 C 147 506.125, 147.175 506.902, 149.636 509.364 C 152.487 512.214, 157.473 512.888, 161.150 510.920 C 164.183 509.296, 166 503.849, 166 496.380 L 166 489.696 171.750 495.178 C 174.912 498.193, 178.755 500.975, 180.288 501.359 C 183.909 502.266, 189.353 499.715, 190.861 496.405 C 193.312 491.027, 192.120 487.918, 184.670 480.250 L 179.568 475 188.228 475 C 195.775 475, 197.221 474.711, 199.478 472.750 C 201.028 471.403, 202.305 469.006, 202.660 466.777 C 203.186 463.473, 202.856 462.656, 199.727 459.527 C 196.256 456.056, 196.067 456, 187.881 456 L 179.563 456 185.257 450.245 C 188.768 446.697, 191.190 443.299, 191.573 441.384 C 192.365 437.423, 189.793 432.252, 186.387 430.957 C 181.224 428.994, 179.036 429.799, 172.518 436.058 L 166.210 442.115 165.855 433.476 C 165.514 425.173, 165.373 424.722, 162.234 421.918 C 158.920 418.956, 156.225 418.431, 152.357 419.992" stroke="none" fill="#94d3fc" fill-rule="evenodd"/></svg>