<svg xmlns="http://www.w3.org/2000/svg" width="512" height="512" viewBox="0 0 512 512" version="1.1"><path d="" stroke="none" fill="#50acec" fill-rule="evenodd"/><path d="M 248.719 1.777 C 247.189 2.724, 245.051 5.330, 243.969 7.566 C 242.380 10.846, 242 13.733, 242 22.510 L 242 33.389 230.746 22.286 C 221.800 13.459, 218.738 11.041, 215.811 10.492 C 213.707 10.098, 210.618 10.301, 208.598 10.968 C 206.655 11.609, 203.944 13.467, 202.573 15.096 C 201.201 16.726, 199.792 19.591, 199.441 21.464 C 199.089 23.337, 199.295 26.364, 199.898 28.191 C 200.633 30.417, 207.757 38.269, 221.497 51.997 L 242 72.482 242 81.974 L 242 91.466 231.250 80.842 C 225.338 74.999, 219.517 69.719, 218.316 69.109 C 217.114 68.499, 214.722 68, 213 68 C 211.278 68, 208.886 68.506, 207.684 69.125 C 206.483 69.744, 204.501 71.160, 203.279 72.272 C 202.057 73.384, 200.550 75.832, 199.930 77.712 C 199.296 79.633, 199.104 82.743, 199.492 84.811 C 200.071 87.897, 203.560 91.893, 221.091 109.545 L 242 130.599 242 176.544 L 242 222.488 209.500 190 L 177 157.512 177 128.724 C 177 105.931, 176.700 99.218, 175.560 96.490 C 174.768 94.594, 172.631 92.136, 170.810 91.026 C 168.717 89.749, 165.749 89.006, 162.735 89.004 C 158.749 89.001, 157.392 89.531, 154.432 92.250 C 152.192 94.308, 150.556 96.967, 149.971 99.500 C 149.463 101.700, 149.037 109.337, 149.024 116.471 L 149 129.442 142.500 123 L 136 116.558 136 87.229 C 136 62.707, 135.746 57.410, 134.451 54.906 C 133.600 53.259, 131.462 51.033, 129.701 49.960 C 127.941 48.886, 124.790 48.006, 122.700 48.004 C 120.611 48.002, 117.613 48.666, 116.039 49.480 C 114.465 50.294, 112.237 52.155, 111.088 53.615 C 109.161 56.065, 109 57.550, 109 72.863 L 109 89.456 100.750 81.339 C 96.213 76.874, 91.517 72.722, 90.316 72.111 C 89.114 71.500, 86.414 71.002, 84.316 71.004 C 82.217 71.006, 79.059 71.886, 77.299 72.960 C 75.538 74.033, 73.400 76.259, 72.549 77.906 C 71.697 79.553, 71 82.528, 71 84.516 C 71 86.505, 71.500 89.114, 72.111 90.316 C 72.722 91.517, 76.874 96.212, 81.339 100.750 L 89.456 109 72.863 109 C 57.550 109, 56.065 109.161, 53.615 111.088 C 52.155 112.237, 50.294 114.465, 49.480 116.039 C 48.666 117.613, 48.002 120.611, 48.004 122.700 C 48.006 124.790, 48.886 127.941, 49.960 129.701 C 51.033 131.462, 53.259 133.600, 54.906 134.451 C 57.410 135.746, 62.707 136, 87.229 136 L 116.558 136 123 142.500 L 129.442 149 116.471 149.024 C 109.337 149.037, 101.700 149.463, 99.500 149.971 C 96.967 150.556, 94.308 152.192, 92.250 154.432 C 89.531 157.392, 89.001 158.749, 89.004 162.735 C 89.006 165.749, 89.749 168.717, 91.026 170.810 C 92.136 172.631, 94.594 174.768, 96.490 175.560 C 99.218 176.700, 105.931 177, 128.724 177 L 157.512 177 190 209.500 L 222.488 242 176.544 242 L 130.599 242 109.545 221.091 C 91.893 203.560, 87.897 200.071, 84.811 199.492 C 82.743 199.104, 79.633 199.296, 77.712 199.930 C 75.832 200.550, 73.384 202.057, 72.272 203.279 C 71.160 204.501, 69.744 206.483, 69.125 207.684 C 68.506 208.886, 68 211.278, 68 213 C 68 214.722, 68.499 217.114, 69.109 218.316 C 69.719 219.517, 74.999 225.337, 80.842 231.250 L 91.466 242 81.974 242 L 72.482 242 51.997 221.497 C 38.269 207.757, 30.417 200.633, 28.191 199.898 C 26.364 199.295, 23.337 199.089, 21.464 199.441 C 19.591 199.792, 16.726 201.201, 15.096 202.573 C 13.467 203.944, 11.609 206.655, 10.968 208.598 C 10.301 210.618, 10.098 213.707, 10.492 215.811 C 11.041 218.738, 13.459 221.800, 22.286 230.746 L 33.389 242 22.510 242 C 13.714 242, 10.849 242.379, 7.544 243.979 C 5.296 245.067, 2.679 247.274, 1.728 248.883 C 0.778 250.492, 0 253.695, 0 256 C 0 258.305, 0.778 261.508, 1.728 263.117 C 2.679 264.726, 5.296 266.933, 7.544 268.021 C 10.849 269.621, 13.714 270, 22.510 270 L 33.389 270 22.286 281.254 C 13.459 290.200, 11.041 293.262, 10.492 296.189 C 10.098 298.293, 10.301 301.382, 10.968 303.402 C 11.609 305.345, 13.467 308.056, 15.096 309.427 C 16.726 310.799, 19.591 312.208, 21.464 312.559 C 23.337 312.911, 26.364 312.705, 28.191 312.102 C 30.417 311.367, 38.269 304.243, 51.997 290.503 L 72.482 270 81.974 270 L 91.466 270 80.842 280.750 C 74.999 286.663, 69.719 292.483, 69.109 293.684 C 68.499 294.886, 68 297.278, 68 299 C 68 300.722, 68.506 303.114, 69.125 304.316 C 69.744 305.517, 71.160 307.499, 72.272 308.721 C 73.384 309.943, 75.832 311.450, 77.712 312.070 C 79.633 312.704, 82.743 312.896, 84.811 312.508 C 87.897 311.929, 91.893 308.440, 109.545 290.909 L 130.599 270 176.544 270 L 222.488 270 190 302.500 L 157.512 335 128.724 335 C 105.931 335, 99.218 335.300, 96.490 336.440 C 94.594 337.232, 92.136 339.369, 91.026 341.190 C 89.749 343.283, 89.006 346.251, 89.004 349.265 C 89.001 353.251, 89.531 354.608, 92.250 357.568 C 94.308 359.808, 96.967 361.444, 99.500 362.029 C 101.700 362.537, 109.337 362.963, 116.471 362.976 L 129.442 363 123 369.500 L 116.558 376 87.229 376 C 62.707 376, 57.410 376.254, 54.906 377.549 C 53.259 378.400, 51.033 380.538, 49.960 382.299 C 48.886 384.059, 48.006 387.210, 48.004 389.300 C 48.002 391.389, 48.666 394.387, 49.480 395.961 C 50.294 397.535, 52.155 399.763, 53.615 400.912 C 56.065 402.839, 57.550 403, 72.863 403 L 89.456 403 81.339 411.250 C 76.874 415.788, 72.722 420.483, 72.111 421.684 C 71.500 422.886, 71.002 425.586, 71.004 427.684 C 71.006 429.783, 71.886 432.941, 72.960 434.701 C 74.033 436.462, 76.259 438.600, 77.906 439.451 C 79.553 440.303, 82.528 441, 84.516 441 C 86.505 441, 89.114 440.500, 90.316 439.889 C 91.517 439.278, 96.213 435.126, 100.750 430.661 L 109 422.544 109 439.137 C 109 454.450, 109.161 455.935, 111.088 458.385 C 112.237 459.845, 114.465 461.706, 116.039 462.520 C 117.613 463.334, 120.520 464, 122.500 464 C 124.480 464, 127.447 463.303, 129.094 462.451 C 130.741 461.600, 132.967 459.462, 134.040 457.701 C 135.860 454.717, 135.993 452.494, 135.996 424.971 L 136 395.442 142.500 389 L 149 382.558 149.024 395.529 C 149.037 402.663, 149.463 410.300, 149.971 412.500 C 150.556 415.033, 152.192 417.692, 154.432 419.750 C 157.392 422.469, 158.749 422.999, 162.735 422.996 C 165.749 422.994, 168.717 422.251, 170.810 420.974 C 172.631 419.864, 174.768 417.406, 175.560 415.510 C 176.700 412.782, 177 406.069, 177 383.276 L 177 354.488 209.500 322 L 242 289.512 242 335.456 L 242 381.401 221.091 402.455 C 203.560 420.107, 200.071 424.103, 199.492 427.189 C 199.104 429.257, 199.296 432.367, 199.930 434.288 C 200.550 436.168, 202.057 438.616, 203.279 439.728 C 204.501 440.840, 206.483 442.256, 207.684 442.875 C 208.886 443.494, 211.278 444, 213 444 C 214.722 444, 217.114 443.501, 218.316 442.891 C 219.517 442.281, 225.338 437.001, 231.250 431.158 L 242 420.534 242 430.026 L 242 439.518 221.497 460.003 C 207.757 473.731, 200.633 481.583, 199.898 483.809 C 199.295 485.636, 199.089 488.663, 199.441 490.536 C 199.792 492.409, 201.201 495.274, 202.573 496.904 C 203.944 498.533, 206.655 500.391, 208.598 501.032 C 210.618 501.699, 213.707 501.902, 215.811 501.508 C 218.738 500.959, 221.800 498.541, 230.746 489.714 L 242 478.611 242 489.490 C 242 498.286, 242.379 501.151, 243.979 504.456 C 245.067 506.704, 247.274 509.321, 248.883 510.272 C 250.492 511.222, 253.695 512, 256 512 C 258.305 512, 261.508 511.222, 263.117 510.272 C 264.726 509.321, 266.933 506.704, 268.021 504.456 C 269.621 501.151, 270 498.286, 270 489.490 L 270 478.611 281.254 489.714 C 290.200 498.541, 293.262 500.959, 296.189 501.508 C 298.293 501.902, 301.382 501.699, 303.402 501.032 C 305.345 500.391, 308.056 498.533, 309.427 496.904 C 310.799 495.274, 312.208 492.409, 312.559 490.536 C 312.911 488.663, 312.705 485.636, 312.102 483.809 C 311.367 481.583, 304.243 473.731, 290.503 460.003 L 270 439.518 270 430.026 L 270 420.534 280.750 431.158 C 286.663 437.001, 292.483 442.281, 293.684 442.891 C 294.886 443.501, 297.278 444, 299 444 C 300.722 444, 303.114 443.494, 304.316 442.875 C 305.517 442.256, 307.499 440.840, 308.721 439.728 C 309.943 438.616, 311.450 436.168, 312.070 434.288 C 312.704 432.367, 312.896 429.257, 312.508 427.189 C 311.929 424.103, 308.440 420.107, 290.909 402.455 L 270 381.401 270 335.456 L 270 289.512 302.500 322 L 335 354.488 335 383.276 C 335 406.069, 335.300 412.782, 336.440 415.510 C 337.232 417.406, 339.369 419.864, 341.190 420.974 C 343.283 422.251, 346.251 422.994, 349.265 422.996 C 353.251 422.999, 354.608 422.469, 357.568 419.750 C 359.808 417.692, 361.444 415.033, 362.029 412.500 C 362.537 410.300, 362.963 402.663, 362.976 395.529 L 363 382.558 369.500 389 L 376 395.442 376.004 424.971 C 376.007 452.494, 376.140 454.717, 377.960 457.701 C 379.033 459.462, 381.259 461.600, 382.906 462.451 C 384.553 463.303, 387.520 464, 389.500 464 C 391.480 464, 394.387 463.334, 395.961 462.520 C 397.535 461.706, 399.763 459.845, 400.912 458.385 C 402.839 455.935, 403 454.450, 403 439.137 L 403 422.544 411.250 430.661 C 415.788 435.126, 420.483 439.278, 421.684 439.889 C 422.886 440.500, 425.495 441, 427.484 441 C 429.472 441, 432.447 440.303, 434.094 439.451 C 435.741 438.600, 437.967 436.462, 439.040 434.701 C 440.114 432.941, 440.994 429.783, 440.996 427.684 C 440.998 425.586, 440.500 422.886, 439.889 421.684 C 439.278 420.483, 435.126 415.787, 430.661 411.250 L 422.544 403 439.137 403 C 454.450 403, 455.935 402.839, 458.385 400.912 C 459.845 399.763, 461.706 397.535, 462.520 395.961 C 463.334 394.387, 463.998 391.389, 463.996 389.300 C 463.994 387.210, 463.084 384.010, 461.974 382.190 C 460.864 380.369, 458.406 378.232, 456.510 377.440 C 453.782 376.300, 447.066 376, 424.253 376 L 395.442 376 389 369.500 L 382.558 363 395.529 362.976 C 402.663 362.963, 410.300 362.537, 412.500 362.029 C 415.033 361.444, 417.692 359.808, 419.750 357.568 C 422.469 354.608, 422.999 353.251, 422.996 349.265 C 422.994 346.251, 422.251 343.283, 420.974 341.190 C 419.864 339.369, 417.406 337.232, 415.510 336.440 C 412.782 335.300, 406.069 335, 383.276 335 L 354.488 335 322 302.500 L 289.512 270 335.456 270 L 381.401 270 402.455 290.909 C 420.107 308.440, 424.103 311.929, 427.189 312.508 C 429.257 312.896, 432.367 312.704, 434.288 312.070 C 436.168 311.450, 438.616 309.943, 439.728 308.721 C 440.840 307.499, 442.256 305.517, 442.875 304.316 C 443.494 303.114, 444 300.722, 444 299 C 444 297.278, 443.501 294.886, 442.891 293.684 C 442.281 292.483, 437.001 286.663, 431.158 280.750 L 420.534 270 430.026 270 L 439.518 270 460.003 290.503 C 473.731 304.243, 481.583 311.367, 483.809 312.102 C 485.636 312.705, 488.663 312.911, 490.536 312.559 C 492.409 312.208, 495.274 310.799, 496.904 309.427 C 498.533 308.056, 500.391 305.345, 501.032 303.402 C 501.699 301.382, 501.902 298.293, 501.508 296.189 C 500.959 293.262, 498.541 290.200, 489.714 281.254 L 478.611 270 489.490 270 C 498.325 270, 501.132 269.626, 504.434 268.009 C 506.670 266.914, 509.512 264.445, 510.750 262.523 C 512.246 260.199, 513 257.495, 513 254.455 C 513 251.940, 512.618 250.118, 512.151 250.407 C 511.684 250.696, 510.710 249.827, 509.987 248.476 C 509.264 247.125, 506.804 245.115, 504.521 244.010 C 501.142 242.374, 498.343 242, 489.490 242 L 478.611 242 489.714 230.746 C 498.541 221.800, 500.959 218.738, 501.508 215.811 C 501.902 213.707, 501.699 210.618, 501.032 208.598 C 500.391 206.655, 498.533 203.944, 496.904 202.573 C 495.274 201.201, 492.409 199.792, 490.536 199.441 C 488.663 199.089, 485.636 199.295, 483.809 199.898 C 481.583 200.633, 473.731 207.757, 460.003 221.497 L 439.518 242 430.026 242 L 420.534 242 431.158 231.250 C 437.001 225.338, 442.281 219.517, 442.891 218.316 C 443.501 217.114, 444 214.722, 444 213 C 444 211.278, 443.494 208.886, 442.875 207.684 C 442.256 206.483, 440.840 204.501, 439.728 203.279 C 438.616 202.057, 436.168 200.550, 434.288 199.930 C 432.367 199.296, 429.257 199.104, 427.189 199.492 C 424.103 200.071, 420.107 203.560, 402.455 221.091 L 381.401 242 335.456 242 L 289.512 242 322 209.500 L 354.488 177 383.276 177 C 406.069 177, 412.782 176.700, 415.510 175.560 C 417.406 174.768, 419.864 172.631, 420.974 170.810 C 422.251 168.717, 422.994 165.749, 422.996 162.735 C 422.999 158.749, 422.469 157.392, 419.750 154.432 C 417.692 152.192, 415.033 150.556, 412.500 149.971 C 410.300 149.463, 402.663 149.037, 395.529 149.024 L 382.558 149 389 142.500 L 395.442 136 424.771 136 C 449.293 136, 454.590 135.746, 457.094 134.451 C 458.741 133.600, 460.967 131.462, 462.040 129.701 C 463.114 127.941, 463.994 124.790, 463.996 122.700 C 463.998 120.611, 463.334 117.613, 462.520 116.039 C 461.706 114.465, 459.845 112.237, 458.385 111.088 C 455.935 109.161, 454.450 109, 439.137 109 L 422.544 109 430.661 100.750 C 435.126 96.212, 439.278 91.517, 439.889 90.316 C 440.500 89.114, 440.998 86.414, 440.996 84.316 C 440.994 82.217, 440.114 79.059, 439.040 77.299 C 437.967 75.538, 435.741 73.400, 434.094 72.549 C 432.447 71.697, 429.472 71, 427.484 71 C 425.495 71, 422.886 71.500, 421.684 72.111 C 420.483 72.722, 415.788 76.874, 411.250 81.339 L 403 89.456 403 72.863 C 403 57.550, 402.839 56.065, 400.912 53.615 C 399.763 52.155, 397.535 50.294, 395.961 49.480 C 394.387 48.666, 391.480 48, 389.500 48 C 387.520 48, 384.553 48.697, 382.906 49.549 C 381.259 50.400, 379.033 52.538, 377.960 54.299 C 376.140 57.283, 376.007 59.506, 376.004 87.029 L 376 116.558 369.500 123 L 363 129.442 362.976 116.471 C 362.963 109.337, 362.537 101.700, 362.029 99.500 C 361.444 96.967, 359.808 94.308, 357.568 92.250 C 354.608 89.531, 353.251 89.001, 349.265 89.004 C 346.251 89.006, 343.283 89.749, 341.190 91.026 C 339.369 92.136, 337.232 94.594, 336.440 96.490 C 335.300 99.218, 335 105.931, 335 128.724 L 335 157.512 302.500 190 L 270 222.488 270 176.544 L 270 130.599 290.909 109.545 C 308.440 91.893, 311.929 87.897, 312.508 84.811 C 312.896 82.743, 312.704 79.633, 312.070 77.712 C 311.450 75.832, 309.943 73.384, 308.721 72.272 C 307.499 71.160, 305.517 69.744, 304.316 69.125 C 303.114 68.506, 300.722 68, 299 68 C 297.278 68, 294.886 68.499, 293.684 69.109 C 292.483 69.719, 286.663 74.999, 280.750 80.842 L 270 91.466 270 81.974 L 270 72.482 290.503 51.997 C 304.243 38.269, 311.367 30.417, 312.102 28.191 C 312.705 26.364, 312.911 23.337, 312.559 21.464 C 312.208 19.591, 310.799 16.726, 309.427 15.096 C 308.056 13.467, 305.345 11.609, 303.402 10.968 C 301.382 10.301, 298.293 10.098, 296.189 10.492 C 293.262 11.041, 290.200 13.459, 281.254 22.286 L 270 33.389 270 22.510 C 270 13.714, 269.621 10.849, 268.021 7.544 C 266.933 5.296, 264.726 2.679, 263.117 1.728 C 261.508 0.778, 258.236 0.012, 255.846 0.027 C 253.456 0.041, 250.248 0.829, 248.719 1.777 M 0.300 256 C 0.300 259.025, 0.487 260.262, 0.716 258.750 C 0.945 257.238, 0.945 254.762, 0.716 253.250 C 0.487 251.738, 0.300 252.975, 0.300 256" stroke="none" fill="#4cacec" fill-rule="evenodd"/></svg>