<svg xmlns="http://www.w3.org/2000/svg" width="512" height="512" viewBox="0 0 512 512" version="1.1"><path d="M 194.860 164.644 C 191.362 167.199, 184.886 172.936, 180.469 177.394 C 176.052 181.852, 169.863 189.377, 166.716 194.117 C 163.568 198.856, 159.464 206.056, 157.595 210.117 C 155.726 214.177, 152.995 221.373, 151.525 226.107 C 149.027 234.154, 148.950 234.946, 150.343 238.279 C 151.163 240.240, 153.005 242.612, 154.438 243.551 C 156.318 244.783, 158.218 245.100, 161.270 244.691 C 164.057 244.317, 166.228 243.273, 167.645 241.627 C 168.826 240.253, 171.021 235.388, 172.522 230.815 C 174.023 226.242, 176.996 219.106, 179.129 214.958 C 181.261 210.810, 185.876 203.835, 189.383 199.458 C 192.890 195.081, 199.822 188.222, 204.786 184.216 C 209.751 180.209, 214.080 176.235, 214.406 175.384 C 214.733 174.533, 214.990 172.186, 214.978 170.168 C 214.966 168.151, 214.178 165.540, 213.228 164.367 C 212.277 163.194, 210.517 161.731, 209.316 161.117 C 208.114 160.503, 205.801 160, 204.176 160 C 202.239 160, 199.028 161.601, 194.860 164.644" stroke="none" fill="#fcfbf9" fill-rule="evenodd"/><path d="M 248.400 35.400 L 245 38.800 245 61.677 C 245 81.597, 245.220 84.875, 246.704 87.027 C 247.641 88.387, 249.104 90.048, 249.954 90.718 C 250.804 91.388, 253.525 91.936, 256 91.936 C 258.475 91.936, 261.196 91.388, 262.046 90.718 C 262.896 90.048, 264.359 88.387, 265.296 87.027 C 266.780 84.875, 267 81.597, 267 61.677 L 267 38.800 263.600 35.400 C 260.813 32.613, 259.443 32, 256 32 C 252.557 32, 251.187 32.613, 248.400 35.400 M 99.763 95.565 C 98.257 96.382, 96.344 98.367, 95.513 99.976 C 94.681 101.584, 94 103.853, 94 105.016 C 94 106.180, 94.498 108.114, 95.107 109.316 C 95.716 110.517, 103.024 118.363, 111.347 126.751 C 121.067 136.549, 127.647 142.388, 129.745 143.081 C 132.413 143.961, 133.699 143.823, 136.756 142.330 C 139.141 141.164, 141.164 139.141, 142.330 136.756 C 143.823 133.699, 143.961 132.413, 143.081 129.745 C 142.388 127.647, 136.549 121.067, 126.751 111.347 C 118.363 103.024, 110.517 95.716, 109.316 95.107 C 108.114 94.498, 106.089 94.018, 104.816 94.040 C 103.542 94.062, 101.268 94.748, 99.763 95.565 M 402.500 95.149 C 401.400 95.748, 393.637 103.042, 385.249 111.358 C 375.444 121.079, 369.612 127.645, 368.919 129.745 C 368.039 132.413, 368.177 133.699, 369.670 136.756 C 370.836 139.141, 372.859 141.164, 375.244 142.330 C 378.301 143.823, 379.587 143.961, 382.255 143.081 C 384.353 142.388, 390.933 136.549, 400.653 126.751 C 408.976 118.363, 416.284 110.517, 416.893 109.316 C 417.502 108.114, 418 106.180, 418 105.016 C 418 103.853, 417.317 101.581, 416.483 99.967 C 415.649 98.354, 413.646 96.351, 412.033 95.517 C 410.419 94.683, 408.064 94.014, 406.800 94.030 C 405.535 94.047, 403.600 94.551, 402.500 95.149 M 241 120.624 C 239.075 120.869, 233.900 121.780, 229.500 122.649 C 225.100 123.517, 217.609 125.498, 212.854 127.051 C 208.099 128.603, 200.468 131.754, 195.896 134.052 C 191.325 136.351, 184.640 140.175, 181.042 142.550 C 177.444 144.926, 171.219 149.637, 167.208 153.018 C 163.198 156.400, 156.990 162.597, 153.414 166.789 C 149.837 170.980, 144.958 177.374, 142.571 180.997 C 140.184 184.620, 136.436 191.165, 134.242 195.542 C 132.048 199.919, 129.108 206.687, 127.709 210.581 C 126.309 214.476, 124.121 222.351, 122.846 228.081 C 120.906 236.797, 120.527 241.360, 120.527 256 C 120.527 270.640, 120.906 275.203, 122.846 283.919 C 124.121 289.649, 126.309 297.524, 127.709 301.419 C 129.108 305.313, 132.037 312.059, 134.218 316.409 C 136.398 320.760, 139.361 326.160, 140.802 328.409 C 142.242 330.659, 146.234 336.159, 149.672 340.631 C 153.109 345.103, 159.427 352.002, 163.711 355.964 C 167.995 359.925, 175.139 365.596, 179.586 368.566 C 184.033 371.536, 192.358 376.198, 198.086 378.927 C 203.814 381.656, 212.550 385.061, 217.500 386.495 C 222.450 387.929, 230.775 389.752, 236 390.545 C 241.225 391.339, 250.225 391.988, 256 391.988 C 261.775 391.988, 270.775 391.339, 276 390.545 C 281.225 389.752, 289.550 387.932, 294.500 386.500 C 299.450 385.069, 308.582 381.463, 314.794 378.487 C 321.005 375.511, 329.780 370.497, 334.294 367.344 C 338.807 364.191, 347 357.086, 352.500 351.556 C 358 346.025, 365.081 337.635, 368.234 332.911 C 371.388 328.187, 376.201 319.637, 378.928 313.911 C 381.656 308.185, 385.061 299.450, 386.495 294.500 C 387.929 289.550, 389.752 281.225, 390.545 276 C 391.339 270.775, 391.988 261.775, 391.988 256 C 391.988 250.225, 391.339 241.225, 390.545 236 C 389.752 230.775, 387.929 222.450, 386.495 217.500 C 385.061 212.550, 381.656 203.814, 378.927 198.086 C 376.198 192.358, 371.540 184.033, 368.575 179.586 C 365.610 175.139, 359.728 167.787, 355.505 163.250 C 351.282 158.712, 343.478 151.726, 338.163 147.726 C 332.848 143.725, 324.345 138.308, 319.266 135.687 C 314.188 133.067, 306.988 129.771, 303.266 128.364 C 299.545 126.956, 291.775 124.704, 286 123.359 C 277.921 121.477, 271.925 120.828, 260 120.546 C 251.475 120.344, 242.925 120.379, 241 120.624 M 194.860 164.644 C 191.362 167.199, 184.886 172.936, 180.469 177.394 C 176.052 181.852, 169.863 189.377, 166.716 194.117 C 163.568 198.856, 159.464 206.056, 157.595 210.117 C 155.726 214.177, 152.995 221.373, 151.525 226.107 C 149.027 234.154, 148.950 234.946, 150.343 238.279 C 151.163 240.240, 153.005 242.612, 154.438 243.551 C 156.318 244.783, 158.218 245.100, 161.270 244.691 C 164.057 244.317, 166.228 243.273, 167.645 241.627 C 168.826 240.253, 171.021 235.388, 172.522 230.815 C 174.023 226.242, 176.996 219.106, 179.129 214.958 C 181.261 210.810, 185.876 203.835, 189.383 199.458 C 192.890 195.081, 199.822 188.222, 204.786 184.216 C 209.751 180.209, 214.080 176.235, 214.406 175.384 C 214.733 174.533, 214.990 172.186, 214.978 170.168 C 214.966 168.151, 214.178 165.540, 213.228 164.367 C 212.277 163.194, 210.517 161.731, 209.316 161.117 C 208.114 160.503, 205.801 160, 204.176 160 C 202.239 160, 199.028 161.601, 194.860 164.644 M 35.400 248.400 C 32.613 251.187, 32 252.557, 32 256 C 32 259.443, 32.613 260.813, 35.400 263.600 L 38.800 267 61.677 267 C 81.597 267, 84.875 266.780, 87.027 265.296 C 88.387 264.359, 90.048 262.896, 90.718 262.046 C 91.388 261.196, 91.936 258.475, 91.936 256 C 91.936 253.525, 91.388 250.804, 90.718 249.954 C 90.048 249.104, 88.387 247.641, 87.027 246.704 C 84.875 245.220, 81.597 245, 61.677 245 L 38.800 245 35.400 248.400 M 424.973 246.704 C 423.613 247.641, 421.952 249.104, 421.282 249.954 C 420.612 250.804, 420.064 253.525, 420.064 256 C 420.064 258.475, 420.612 261.196, 421.282 262.046 C 421.952 262.896, 423.613 264.359, 424.973 265.296 C 427.125 266.780, 430.403 267, 450.323 267 L 473.200 267 476.600 263.600 C 479.387 260.813, 480 259.443, 480 256 C 480 252.557, 479.387 251.187, 476.600 248.400 L 473.200 245 450.323 245 C 430.403 245, 427.125 245.220, 424.973 246.704 M 128.500 369.404 C 126.850 370.158, 118.673 377.688, 110.328 386.138 C 101.123 395.459, 94.887 402.581, 94.470 404.250 C 94.092 405.762, 94.075 408.164, 94.432 409.586 C 94.789 411.008, 96.149 413.240, 97.455 414.545 C 98.760 415.851, 100.992 417.211, 102.414 417.568 C 103.836 417.925, 106.238 417.908, 107.750 417.531 C 109.433 417.111, 116.606 410.784, 126.237 401.225 C 136.240 391.298, 142.362 384.434, 143.037 382.389 C 143.855 379.911, 143.762 378.366, 142.633 375.664 C 141.827 373.734, 140.117 371.476, 138.834 370.646 C 137.550 369.815, 135.375 368.887, 134 368.584 C 132.625 368.281, 130.150 368.650, 128.500 369.404 M 375 369.752 C 372.883 370.809, 370.777 372.979, 369.670 375.244 C 368.168 378.319, 368.036 379.579, 368.933 382.297 C 369.646 384.457, 375.492 391.032, 385.763 401.225 C 395.394 410.784, 402.567 417.111, 404.250 417.531 C 405.762 417.908, 408.164 417.925, 409.586 417.568 C 411.008 417.211, 413.240 415.851, 414.545 414.545 C 415.851 413.240, 417.211 411.008, 417.568 409.586 C 417.925 408.164, 417.908 405.762, 417.530 404.250 C 417.113 402.582, 410.876 395.458, 401.672 386.136 C 393.327 377.686, 385.052 370.149, 383.282 369.386 C 381.512 368.624, 379.712 368.001, 379.282 368.002 C 378.852 368.002, 376.925 368.790, 375 369.752 M 249.954 421.282 C 249.104 421.952, 247.641 423.613, 246.704 424.973 C 245.220 427.125, 245 430.403, 245 450.323 L 245 473.200 248.400 476.600 C 251.187 479.387, 252.557 480, 256 480 C 259.443 480, 260.813 479.387, 263.600 476.600 L 267 473.200 267 450.323 C 267 430.403, 266.780 427.125, 265.296 424.973 C 264.359 423.613, 262.896 421.952, 262.046 421.282 C 261.196 420.612, 258.475 420.064, 256 420.064 C 253.525 420.064, 250.804 420.612, 249.954 421.282" stroke="none" fill="#fccb68" fill-rule="evenodd"/></svg>