<svg xmlns="http://www.w3.org/2000/svg" width="512" height="512" viewBox="0 0 512 512" version="1.1"><path d="M 111.731 385.244 C 105.827 388.685, 99.383 393.036, 97.411 394.913 C 95.440 396.790, 93.416 399.407, 92.913 400.728 C 92.411 402.049, 92.010 404.563, 92.022 406.315 C 92.034 408.067, 92.893 411.369, 93.930 413.654 C 95.228 416.513, 97.197 418.617, 100.246 420.404 C 103.024 422.032, 106.173 423, 108.690 423 C 111.209 423, 113.961 422.153, 116.078 420.726 C 117.934 419.476, 120.438 416.989, 121.643 415.201 C 123.146 412.972, 124.039 409.680, 124.485 404.725 C 124.843 400.751, 124.993 393.486, 124.818 388.581 C 124.643 383.675, 124.043 379.510, 123.483 379.325 C 122.924 379.140, 117.636 381.804, 111.731 385.244 M 175.731 385.244 C 169.827 388.685, 163.383 393.036, 161.411 394.913 C 159.440 396.790, 157.416 399.407, 156.913 400.728 C 156.411 402.049, 156.010 404.563, 156.022 406.315 C 156.034 408.067, 156.893 411.369, 157.930 413.654 C 159.228 416.513, 161.197 418.617, 164.246 420.404 C 167.024 422.032, 170.173 423, 172.690 423 C 175.209 423, 177.961 422.153, 180.078 420.726 C 181.934 419.476, 184.438 416.989, 185.643 415.201 C 187.146 412.972, 188.039 409.680, 188.485 404.725 C 188.843 400.751, 188.993 393.486, 188.818 388.581 C 188.643 383.675, 188.043 379.510, 187.483 379.325 C 186.924 379.140, 181.636 381.804, 175.731 385.244 M 311.709 385.244 C 305.793 388.685, 299.165 393.244, 296.981 395.375 C 294.626 397.673, 292.576 400.860, 291.944 403.208 C 291.358 405.386, 291.179 408.592, 291.547 410.334 C 291.915 412.075, 293.084 414.931, 294.146 416.679 C 295.207 418.428, 298.001 420.790, 300.353 421.929 C 302.706 423.068, 305.969 424, 307.604 424 C 309.239 424, 312.584 422.988, 315.038 421.750 C 318.182 420.165, 320.224 418.178, 321.949 415.025 C 324.241 410.837, 324.402 409.557, 324.449 395.116 C 324.481 385.508, 324.116 379.553, 323.483 379.336 C 322.924 379.145, 317.626 381.804, 311.709 385.244 M 375.709 385.244 C 369.793 388.685, 363.165 393.244, 360.981 395.375 C 358.626 397.673, 356.576 400.860, 355.944 403.208 C 355.358 405.386, 355.179 408.592, 355.547 410.334 C 355.915 412.075, 357.084 414.931, 358.146 416.679 C 359.207 418.428, 362.001 420.790, 364.353 421.929 C 366.706 423.068, 369.969 424, 371.604 424 C 373.239 424, 376.584 422.988, 379.038 421.750 C 382.182 420.165, 384.224 418.178, 385.949 415.025 C 388.241 410.837, 388.402 409.557, 388.449 395.116 C 388.481 385.508, 388.116 379.553, 387.483 379.336 C 386.924 379.145, 381.626 381.804, 375.709 385.244" stroke="none" fill="#1e6be7" fill-rule="evenodd"/><path d="" stroke="none" fill="#000000" fill-rule="evenodd"/><path d="M 274.174 66.314 C 272.202 68.414, 272 69.698, 272 80.140 C 272 90.880, 272.155 91.797, 274.314 93.826 C 275.784 95.206, 277.911 96, 280.140 96 C 282.517 96, 284.354 95.253, 285.826 93.686 C 287.798 91.586, 288 90.302, 288 79.860 C 288 69.120, 287.845 68.203, 285.686 66.174 C 284.216 64.794, 282.089 64, 279.860 64 C 277.483 64, 275.646 64.747, 274.174 66.314 M 184.923 104.923 C 183.140 106.706, 182 108.896, 182 110.538 C 182 112.541, 183.962 115.246, 189.673 121.115 C 196.262 127.886, 197.823 129, 200.719 129 C 202.966 129, 204.910 128.181, 206.545 126.545 C 208.137 124.953, 209 122.957, 209 120.864 C 209 118.169, 207.709 116.346, 201.182 109.818 C 195.203 103.839, 192.715 102, 190.605 102 C 188.889 102, 186.741 103.105, 184.923 104.923 M 358.885 109.673 C 352.114 116.262, 351 117.823, 351 120.719 C 351 122.966, 351.819 124.910, 353.455 126.545 C 355.047 128.137, 357.043 129, 359.136 129 C 361.831 129, 363.654 127.709, 370.182 121.182 C 376.161 115.203, 378 112.715, 378 110.605 C 378 108.889, 376.895 106.741, 375.077 104.923 C 373.294 103.140, 371.104 102, 369.462 102 C 367.459 102, 364.754 103.962, 358.885 109.673 M 262.364 121.493 C 258.989 122.227, 253.064 124.157, 249.197 125.782 C 245.330 127.407, 239.037 130.816, 235.213 133.358 C 231.390 135.900, 225.354 141.061, 221.802 144.827 C 218.249 148.593, 213.661 154.442, 211.606 157.825 C 209.551 161.209, 206.824 166.569, 205.546 169.738 C 204.268 172.907, 202.651 178.090, 201.951 181.256 C 201.251 184.422, 200.906 187.239, 201.184 187.517 C 201.461 187.794, 203.671 187.264, 206.094 186.338 C 209.356 185.092, 213.876 184.634, 223.500 184.577 C 233.734 184.516, 237.670 184.899, 242 186.373 C 245.025 187.403, 250.650 189.859, 254.500 191.829 C 259.195 194.232, 263.981 197.896, 269.034 202.956 C 273.557 207.486, 277.876 212.997, 279.842 216.750 C 281.644 220.188, 283.359 223, 283.654 223 C 283.950 223, 285.386 222.153, 286.846 221.118 C 288.306 220.083, 291.653 218.508, 294.285 217.618 C 296.917 216.728, 301.512 216, 304.497 216 C 307.606 216, 312.385 216.920, 315.681 218.154 C 319.583 219.614, 323.090 221.960, 326.565 225.435 C 330.040 228.910, 332.386 232.417, 333.846 236.319 C 335.031 239.485, 336 243.408, 336 245.038 C 336 247.875, 336.187 248, 340.428 248 C 344.750 248, 344.939 247.862, 348.375 242.206 C 350.311 239.020, 352.851 234.182, 354.020 231.456 C 355.190 228.730, 357.010 222.900, 358.066 218.500 C 359.329 213.236, 359.986 206.909, 359.986 200 C 359.986 193.046, 359.329 186.760, 358.041 181.386 C 356.971 176.924, 354.954 170.692, 353.559 167.539 C 352.165 164.385, 348.998 158.757, 346.522 155.033 C 344.046 151.308, 338.939 145.354, 335.173 141.802 C 331.407 138.249, 325.558 133.661, 322.175 131.606 C 318.791 129.551, 313.305 126.765, 309.983 125.415 C 306.660 124.065, 300.776 122.294, 296.906 121.480 C 293.002 120.659, 285.113 120.035, 279.185 120.079 C 273.308 120.123, 265.739 120.760, 262.364 121.493 M 386.174 194.314 C 384.794 195.784, 384 197.911, 384 200.140 C 384 202.517, 384.747 204.354, 386.314 205.826 C 388.414 207.798, 389.698 208, 400.140 208 C 410.880 208, 411.797 207.845, 413.826 205.686 C 415.206 204.216, 416 202.089, 416 199.860 C 416 197.483, 415.253 195.646, 413.686 194.174 C 411.586 192.202, 410.302 192, 399.860 192 C 389.120 192, 388.203 192.155, 386.174 194.314 M 239.137 281.750 C 238.623 282.712, 232.810 295.650, 226.219 310.500 C 219.628 325.350, 212.832 340.469, 211.117 344.097 C 209.403 347.725, 208 350.988, 208 351.347 C 208 351.706, 214.975 352, 223.500 352 C 236.788 352, 239 352.220, 239 353.540 C 239 354.386, 235.597 373.766, 231.439 396.606 C 227.280 419.446, 224.028 438.585, 224.212 439.136 C 224.396 439.688, 240.061 418.288, 259.023 391.580 C 277.985 364.872, 295.816 339.753, 298.647 335.760 L 303.794 328.500 283.903 328.229 L 264.013 327.959 276.010 303.979 L 288.008 280 264.039 280 C 242.234 280, 239.986 280.158, 239.137 281.750" stroke="none" fill="#f6c341" fill-rule="evenodd"/><path d="M 213 184.642 C 211.625 184.917, 207.630 186.013, 204.123 187.078 C 200.616 188.142, 195.441 190.246, 192.623 191.752 C 189.805 193.258, 183.659 198.318, 178.964 202.995 C 172.445 209.491, 169.567 213.272, 166.781 219 C 164.775 223.125, 162.428 229.265, 161.567 232.644 C 160.705 236.024, 160 240.861, 160 243.394 L 160 248 152.105 248 C 147.055 248, 141.895 248.715, 137.783 249.985 C 134.248 251.077, 128.688 253.716, 125.428 255.849 C 122.168 257.983, 118.308 261.027, 116.851 262.614 C 115.394 264.201, 112.790 267.750, 111.065 270.500 C 109.340 273.250, 107.044 278.360, 105.964 281.855 C 104.724 285.868, 104 291.082, 104 296 C 104 300.945, 104.725 306.136, 105.985 310.217 C 107.077 313.752, 109.716 319.312, 111.849 322.572 C 113.983 325.832, 117.027 329.692, 118.614 331.149 C 120.201 332.606, 123.750 335.210, 126.500 336.935 C 129.250 338.660, 134.360 340.956, 137.855 342.036 C 143.647 343.826, 147.196 343.998, 177.855 343.974 L 211.500 343.949 225.532 312.224 L 239.563 280.500 263.795 280.232 L 288.026 279.964 276.019 303.962 L 264.013 327.959 283.903 328.229 L 303.794 328.500 298.368 336 L 292.942 343.500 321.221 343.809 C 340.282 344.016, 351.293 343.733, 355 342.938 C 358.025 342.290, 363.173 340.414, 366.441 338.769 C 369.708 337.124, 374.943 333.217, 378.074 330.086 C 381.205 326.955, 384.894 322.167, 386.272 319.446 C 387.650 316.726, 389.502 312.056, 390.388 309.068 C 391.275 306.081, 392 300.200, 392 296 C 392 291.800, 391.275 285.919, 390.388 282.932 C 389.502 279.944, 387.650 275.274, 386.272 272.554 C 384.894 269.833, 381.146 264.986, 377.942 261.782 C 373.973 257.813, 369.669 254.794, 364.435 252.309 C 357.502 249.016, 355.743 248.616, 346.377 248.199 L 336 247.738 336 244.906 C 336 243.349, 335.031 239.485, 333.846 236.319 C 332.386 232.417, 330.040 228.910, 326.565 225.435 C 323.090 221.960, 319.583 219.614, 315.681 218.154 C 312.385 216.920, 307.606 216, 304.497 216 C 301.512 216, 296.917 216.728, 294.285 217.618 C 291.653 218.508, 288.306 220.083, 286.846 221.118 C 285.386 222.153, 283.950 223, 283.654 223 C 283.359 223, 281.644 220.188, 279.842 216.750 C 277.871 212.989, 273.568 207.500, 269.034 202.966 C 264.513 198.446, 259.011 194.128, 255.275 192.171 C 251.852 190.377, 246.452 187.989, 243.275 186.864 C 239.164 185.408, 234.330 184.721, 226.500 184.481 C 220.450 184.295, 214.375 184.368, 213 184.642" stroke="none" fill="#a09997" fill-rule="evenodd"/></svg>